<svg xmlns="http://www.w3.org/2000/svg" version="1.1" xmlns:xlink="http://www.w3.org/1999/xlink" viewBox="0 0 200 200"><rect width="200" height="200" fill="url('#gradient')"></rect><defs><linearGradient id="gradient" gradientTransform="rotate(71 0.5 0.5)"><stop offset="0%" stop-color="#f20000"></stop><stop offset="100%" stop-color="#e81010"></stop></linearGradient></defs><g><g fill="#f8f8f9" transform="matrix(3.1054640522875814,0,0,3.1054640522875814,42.09616341644955,122.0686961276983)" stroke="#1c1c1c" stroke-width="0.75"><path d="M3.65-14.22L6.28-8.05L8.90-14.22L12.60-14.22L8.02-5.11L8.02 0L4.54 0L4.54-5.11L-0.03-14.22L3.65-14.22ZM18.31 0L13.63 0L13.63-14.22L18.21-14.22Q20.10-14.22 21.60-13.36Q23.11-12.51 23.95-10.95Q24.79-9.39 24.80-7.46L24.80-7.46L24.80-6.81Q24.80-4.85 23.98-3.31Q23.15-1.76 21.66-0.88Q20.16-0.01 18.31 0L18.31 0ZM18.21-11.57L17.06-11.57L17.06-2.64L18.25-2.64Q19.73-2.64 20.52-3.69Q21.31-4.74 21.31-6.81L21.31-6.81L21.31-7.42Q21.31-9.48 20.52-10.53Q19.73-11.57 18.21-11.57L18.21-11.57ZM33.90-3.78L33.90-3.78Q33.90-4.53 33.36-4.95Q32.83-5.37 31.49-5.82Q30.16-6.27 29.31-6.69L29.31-6.69Q26.54-8.05 26.54-10.42L26.54-10.42Q26.54-11.60 27.23-12.50Q27.92-13.41 29.18-13.91Q30.44-14.41 32.01-14.41L32.01-14.41Q33.54-14.41 34.76-13.87Q35.98-13.32 36.65-12.31Q37.32-11.30 37.32-10L37.32-10L33.91-10Q33.91-10.87 33.37-11.35Q32.84-11.83 31.93-11.83L31.93-11.83Q31.02-11.83 30.48-11.42Q29.95-11.02 29.95-10.39L29.95-10.39Q29.95-9.84 30.54-9.40Q31.12-8.96 32.60-8.48Q34.07-8.01 35.02-7.46L35.02-7.46Q37.32-6.13 37.32-3.80L37.32-3.80Q37.32-1.93 35.92-0.87Q34.51 0.20 32.06 0.20L32.06 0.20Q30.33 0.20 28.93-0.42Q27.53-1.04 26.82-2.12Q26.11-3.20 26.11-4.61L26.11-4.61L29.55-4.61Q29.55-3.47 30.14-2.92Q30.73-2.38 32.06-2.38L32.06-2.38Q32.91-2.38 33.40-2.75Q33.90-3.12 33.90-3.78Z"></path></g></g></svg>
